<mxfile host="Electron" modified="2023-09-08T05:56:33.712Z" agent="Mozilla/5.0 (Macintosh; Intel Mac OS X 10_15_7) AppleWebKit/537.36 (KHTML, like Gecko) draw.io/21.6.8 Chrome/114.0.5735.289 Electron/25.5.0 Safari/537.36" etag="R2Ebb9TXq-B-8hO-Re4s" version="21.6.8" type="device">
  <diagram id="C5RBs43oDa-KdzZeNtuy" name="Page-1">
    <mxGraphModel dx="1026" dy="681" grid="1" gridSize="10" guides="1" tooltips="1" connect="1" arrows="1" fold="1" page="1" pageScale="1" pageWidth="827" pageHeight="1169" math="0" shadow="0">
      <root>
        <mxCell id="WIyWlLk6GJQsqaUBKTNV-0" />
        <mxCell id="WIyWlLk6GJQsqaUBKTNV-1" parent="WIyWlLk6GJQsqaUBKTNV-0" />
        <mxCell id="KiFkoGdLlW9KXHeTtFIs-0" value="" style="edgeStyle=orthogonalEdgeStyle;rounded=0;orthogonalLoop=1;jettySize=auto;html=1;" edge="1" parent="WIyWlLk6GJQsqaUBKTNV-1" source="KiFkoGdLlW9KXHeTtFIs-1" target="KiFkoGdLlW9KXHeTtFIs-3">
          <mxGeometry relative="1" as="geometry" />
        </mxCell>
        <mxCell id="KiFkoGdLlW9KXHeTtFIs-1" value="从缓存查询数据" style="rounded=1;whiteSpace=wrap;html=1;fontSize=12;glass=0;strokeWidth=1;shadow=0;" vertex="1" parent="WIyWlLk6GJQsqaUBKTNV-1">
          <mxGeometry x="190" y="160" width="120" height="40" as="geometry" />
        </mxCell>
        <mxCell id="KiFkoGdLlW9KXHeTtFIs-2" value="No" style="edgeStyle=orthogonalEdgeStyle;rounded=0;html=1;jettySize=auto;orthogonalLoop=1;fontSize=11;endArrow=classic;endFill=1;endSize=8;strokeWidth=1;shadow=0;labelBackgroundColor=none;" edge="1" parent="WIyWlLk6GJQsqaUBKTNV-1" source="KiFkoGdLlW9KXHeTtFIs-3" target="KiFkoGdLlW9KXHeTtFIs-5">
          <mxGeometry y="10" relative="1" as="geometry">
            <mxPoint as="offset" />
          </mxGeometry>
        </mxCell>
        <mxCell id="KiFkoGdLlW9KXHeTtFIs-3" value="缓存存在？" style="rhombus;whiteSpace=wrap;html=1;shadow=0;fontFamily=Helvetica;fontSize=12;align=center;strokeWidth=1;spacing=6;spacingTop=-4;" vertex="1" parent="WIyWlLk6GJQsqaUBKTNV-1">
          <mxGeometry x="200" y="240" width="100" height="80" as="geometry" />
        </mxCell>
        <mxCell id="KiFkoGdLlW9KXHeTtFIs-4" value="" style="edgeStyle=orthogonalEdgeStyle;rounded=0;orthogonalLoop=1;jettySize=auto;html=1;" edge="1" parent="WIyWlLk6GJQsqaUBKTNV-1" source="KiFkoGdLlW9KXHeTtFIs-5" target="KiFkoGdLlW9KXHeTtFIs-8">
          <mxGeometry relative="1" as="geometry" />
        </mxCell>
        <mxCell id="KiFkoGdLlW9KXHeTtFIs-5" value="从数据库中查询" style="rounded=1;whiteSpace=wrap;html=1;fontSize=12;glass=0;strokeWidth=1;shadow=0;" vertex="1" parent="WIyWlLk6GJQsqaUBKTNV-1">
          <mxGeometry x="350" y="260" width="110" height="40" as="geometry" />
        </mxCell>
        <mxCell id="KiFkoGdLlW9KXHeTtFIs-6" value="No" style="edgeStyle=orthogonalEdgeStyle;rounded=0;html=1;jettySize=auto;orthogonalLoop=1;fontSize=11;endArrow=classic;endFill=1;endSize=8;strokeWidth=1;shadow=0;labelBackgroundColor=none;" edge="1" parent="WIyWlLk6GJQsqaUBKTNV-1" source="KiFkoGdLlW9KXHeTtFIs-8" target="KiFkoGdLlW9KXHeTtFIs-10">
          <mxGeometry y="10" relative="1" as="geometry">
            <mxPoint as="offset" />
          </mxGeometry>
        </mxCell>
        <mxCell id="KiFkoGdLlW9KXHeTtFIs-7" value="" style="edgeStyle=orthogonalEdgeStyle;rounded=0;orthogonalLoop=1;jettySize=auto;html=1;" edge="1" parent="WIyWlLk6GJQsqaUBKTNV-1" source="KiFkoGdLlW9KXHeTtFIs-8" target="KiFkoGdLlW9KXHeTtFIs-14">
          <mxGeometry relative="1" as="geometry" />
        </mxCell>
        <mxCell id="KiFkoGdLlW9KXHeTtFIs-8" value="数据库查询存在？" style="rhombus;whiteSpace=wrap;html=1;shadow=0;fontFamily=Helvetica;fontSize=12;align=center;strokeWidth=1;spacing=6;spacingTop=-4;" vertex="1" parent="WIyWlLk6GJQsqaUBKTNV-1">
          <mxGeometry x="520" y="240" width="100" height="80" as="geometry" />
        </mxCell>
        <mxCell id="KiFkoGdLlW9KXHeTtFIs-9" value="返回数据" style="rounded=1;whiteSpace=wrap;html=1;fontSize=12;glass=0;strokeWidth=1;shadow=0;" vertex="1" parent="WIyWlLk6GJQsqaUBKTNV-1">
          <mxGeometry x="190" y="410" width="120" height="40" as="geometry" />
        </mxCell>
        <mxCell id="KiFkoGdLlW9KXHeTtFIs-10" value="返回失败" style="rounded=1;whiteSpace=wrap;html=1;fontSize=12;glass=0;strokeWidth=1;shadow=0;" vertex="1" parent="WIyWlLk6GJQsqaUBKTNV-1">
          <mxGeometry x="670" y="260" width="120" height="40" as="geometry" />
        </mxCell>
        <mxCell id="KiFkoGdLlW9KXHeTtFIs-11" style="edgeStyle=orthogonalEdgeStyle;rounded=0;orthogonalLoop=1;jettySize=auto;html=1;exitX=0.5;exitY=1;exitDx=0;exitDy=0;entryX=0.5;entryY=0;entryDx=0;entryDy=0;" edge="1" parent="WIyWlLk6GJQsqaUBKTNV-1" source="KiFkoGdLlW9KXHeTtFIs-12" target="KiFkoGdLlW9KXHeTtFIs-1">
          <mxGeometry relative="1" as="geometry" />
        </mxCell>
        <mxCell id="KiFkoGdLlW9KXHeTtFIs-12" value="请求访问数据" style="rounded=1;whiteSpace=wrap;html=1;fontSize=12;glass=0;strokeWidth=1;shadow=0;" vertex="1" parent="WIyWlLk6GJQsqaUBKTNV-1">
          <mxGeometry x="190" y="70" width="120" height="40" as="geometry" />
        </mxCell>
        <mxCell id="KiFkoGdLlW9KXHeTtFIs-13" style="edgeStyle=orthogonalEdgeStyle;rounded=0;orthogonalLoop=1;jettySize=auto;html=1;entryX=1;entryY=0.5;entryDx=0;entryDy=0;exitX=0.5;exitY=1;exitDx=0;exitDy=0;" edge="1" parent="WIyWlLk6GJQsqaUBKTNV-1" source="KiFkoGdLlW9KXHeTtFIs-14" target="KiFkoGdLlW9KXHeTtFIs-9">
          <mxGeometry relative="1" as="geometry" />
        </mxCell>
        <mxCell id="KiFkoGdLlW9KXHeTtFIs-14" value="将数据放入缓存" style="rounded=1;whiteSpace=wrap;html=1;fontSize=12;glass=0;strokeWidth=1;shadow=0;" vertex="1" parent="WIyWlLk6GJQsqaUBKTNV-1">
          <mxGeometry x="510" y="370" width="120" height="40" as="geometry" />
        </mxCell>
        <mxCell id="KiFkoGdLlW9KXHeTtFIs-15" value="Yes" style="edgeStyle=orthogonalEdgeStyle;rounded=0;html=1;jettySize=auto;orthogonalLoop=1;fontSize=11;endArrow=classic;endFill=1;endSize=8;strokeWidth=1;shadow=0;labelBackgroundColor=none;exitX=0.5;exitY=1;exitDx=0;exitDy=0;entryX=0.5;entryY=0;entryDx=0;entryDy=0;" edge="1" parent="WIyWlLk6GJQsqaUBKTNV-1" source="KiFkoGdLlW9KXHeTtFIs-3" target="KiFkoGdLlW9KXHeTtFIs-9">
          <mxGeometry y="10" relative="1" as="geometry">
            <mxPoint as="offset" />
            <mxPoint x="480" y="350" as="sourcePoint" />
            <mxPoint x="530" y="350" as="targetPoint" />
          </mxGeometry>
        </mxCell>
        <mxCell id="KiFkoGdLlW9KXHeTtFIs-16" value="Yes" style="text;html=1;align=center;verticalAlign=middle;resizable=0;points=[];autosize=1;strokeColor=none;fillColor=none;" vertex="1" parent="WIyWlLk6GJQsqaUBKTNV-1">
          <mxGeometry x="570" y="328" width="40" height="30" as="geometry" />
        </mxCell>
      </root>
    </mxGraphModel>
  </diagram>
</mxfile>
